<?xml version="1.0" encoding="UTF-8"?><svg xmlns="http://www.w3.org/2000/svg" width="603" height="603" style="font-family: Arial, sans-serif; width: 603px; height: 358px;"><g class="path" style="cursor: move;"><path stroke="#4dac26" stroke-width="1.5" fill="none" d="M82.85,313.80L212.01,313.80"></path><path stroke="#4dac26" stroke-width="1.5" fill="white" class="arrowfront" d="M-1,0L15,5L15,-5Z" transform="translate(212.0068398338908,313.8030665698962) rotate(179.99999275354742)"></path></g><g class="path" style="cursor: move;"><path stroke="#d01c8b" stroke-width="1.5" fill="none" d="M308.70,199.06L85.10,304.83"></path><path stroke="#d01c8b" stroke-width="1.5" fill="white" class="arrowfront" d="M-1,0L15,5L15,-5Z" transform="translate(85.10228341500961,304.8256951391401) rotate(-25.31514835246805)"></path></g><g class="path" style="cursor: move;"><path stroke="#d01c8b" stroke-width="1.5" fill="none" d="M345.97,194.75L488.00,218.63"></path><path stroke="#d01c8b" stroke-width="1.5" fill="white" class="arrowfront" d="M-1,0L15,5L15,-5Z" transform="translate(488.00341833229675,218.62702601995557) rotate(189.54388843964236)"></path></g><g class="path" style="cursor: move;"><path stroke="#d01c8b" stroke-width="1.5" fill="none" d="M257.01,313.80L489.82,313.80"></path><path stroke="#d01c8b" stroke-width="1.5" fill="white" class="arrowfront" d="M-1,0L15,5L15,-5Z" transform="translate(489.8159758977293,313.8030665698962) rotate(179.99999597979172)"></path></g><g class="path" style="cursor: move;"><path stroke="#d01c8b" stroke-width="1.5" fill="none" d="M509.47,62.62L512.14,202.13"></path><path stroke="#d01c8b" stroke-width="1.5" fill="white" class="arrowfront" d="M-1,0L15,5L15,-5Z" transform="translate(512.1379687391644,202.13177082392104) rotate(268.9051058990643)"></path></g><g class="path" style="cursor: move;"><path stroke="#d01c8b" stroke-width="1.5" fill="none" d="M295.68,108.78L80.93,300.15"></path><path stroke="#d01c8b" stroke-width="1.5" fill="white" class="arrowfront" d="M-1,0L15,5L15,-5Z" transform="translate(80.93435013953027,300.1490901586331) rotate(-41.70597061584582)"></path></g><g class="path" style="cursor: move;"><path stroke="#d01c8b" stroke-width="1.5" fill="none" d="M312.84,112.96L322.24,172.23"></path><path stroke="#d01c8b" stroke-width="1.5" fill="white" class="arrowfront" d="M-1,0L15,5L15,-5Z" transform="translate(322.243377355775,172.22943752958642) rotate(260.9825540671429)"></path></g><g class="path" style="cursor: move;"><path stroke="#d01c8b" stroke-width="1.5" fill="none" d="M329.23,101.62L438.64,125.04"></path><path stroke="#d01c8b" stroke-width="1.5" fill="white" class="arrowfront" d="M-1,0L15,5L15,-5Z" transform="translate(438.636278038665,125.04214699682079) rotate(192.0821470798658)"></path></g><g class="path" style="cursor: move;"><path stroke="#d01c8b" stroke-width="1.5" fill="none" d="M471.50,143.00L501.48,204.30"></path><path stroke="#d01c8b" stroke-width="1.5" fill="white" class="arrowfront" d="M-1,0L15,5L15,-5Z" transform="translate(501.476292744222,204.29869611306194) rotate(243.9398081118769)"></path></g><g class="path" style="cursor: move;"><path stroke="#d01c8b" stroke-width="1.5" fill="none" d="M513.03,237.12L514.25,293.81"></path><path stroke="#d01c8b" stroke-width="1.5" fill="white" class="arrowfront" d="M-1,0L15,5L15,-5Z" transform="translate(514.2508228161545,293.8084397647896) rotate(268.7665466211815)"></path></g><g class="path" style="cursor: move;"><path stroke="#d01c8b" stroke-width="1.5" fill="none" d="M59.73,62.43L62.55,293.80"></path><path stroke="#d01c8b" stroke-width="1.5" fill="white" class="arrowfront" d="M-1,0L15,5L15,-5Z" transform="translate(62.554324882085844,293.80461772468914) rotate(269.300642967308)"></path></g><g class="path" style="cursor: move;"><path stroke="#d01c8b" stroke-width="1.5" fill="none" d="M69.57,60.39L223.88,296.89"></path><path stroke="#d01c8b" stroke-width="1.5" fill="white" class="arrowfront" d="M-1,0L15,5L15,-5Z" transform="translate(223.87702879015254,296.88802053967305) rotate(236.87706696861764)"></path></g><g class="path" style="cursor: move;"><path stroke="#d01c8b" stroke-width="1.5" fill="none" d="M190.27,61.13L73.55,295.80"></path><path stroke="#d01c8b" stroke-width="1.5" fill="white" class="arrowfront" d="M-1,0L15,5L15,-5Z" transform="translate(73.54590764878455,295.80041203347133) rotate(-63.5540449661564)"></path></g><g class="path" style="cursor: move;"><path stroke="#d01c8b" stroke-width="1.5" fill="none" d="M200.94,62.31L233.64,293.99"></path><path stroke="#d01c8b" stroke-width="1.5" fill="white" class="arrowfront" d="M-1,0L15,5L15,-5Z" transform="translate(233.64223713696285,293.99232343265584) rotate(261.9660726663019)"></path></g><g class="path" style="cursor: move;"><path stroke="#d01c8b" stroke-width="1.5" fill="none" d="M218.41,47.44L484.12,47.61"></path><path stroke="#d01c8b" stroke-width="1.5" fill="white" class="arrowfront" d="M-1,0L15,5L15,-5Z" transform="translate(484.1203969839296,47.61318153737961) rotate(180.03741485756257)"></path></g><g class="path" style="cursor: move;"><path stroke="#d01c8b" stroke-width="1.5" fill="none" d="M216.09,54.45L287.45,89.27"></path><path stroke="#d01c8b" stroke-width="1.5" fill="white" class="arrowfront" d="M-1,0L15,5L15,-5Z" transform="translate(287.4495336636325,89.26925854341142) rotate(206.00929231247704)"></path></g><g class="path" style="cursor: move;"><path stroke="#d01c8b" stroke-width="1.5" fill="none" d="M178.41,47.43L84.51,47.43"></path><path stroke="#d01c8b" stroke-width="1.5" fill="white" class="arrowfront" d="M-1,0L15,5L15,-5Z" transform="translate(84.50948619819232,47.4284127204555) rotate(-0.000007973552188985581)"></path></g><g style="cursor: move; touch-action: none;" transform="translate(62.84830225551663,313.80308290515205)"><path fill-opacity="0.7" stroke-width="2" z-index="1" d="M 0 0 m 20, 0 a 20,15 0 1,1 -40,0 a 20,15 0 1,1 40,0" fill="#bed403" stroke="#000000"></path><rect class="textbg" fill="#ffffff" width="111.18333435058594" height="19" x="-55.59166717529297" y="20"></rect><text class="nodelabel" y="35" text-anchor="middle">ecosystem type</text><path d="M-4,-6L7,0L-4,6Z" fill="#000000"></path></g><g style="cursor: move; touch-action: none;" transform="translate(326.32016936731543,191.95084016108873)"><path fill-opacity="0.7" stroke-width="2" z-index="1" d="M 0 0 m 20, 0 a 20,15 0 1,1 -40,0 a 20,15 0 1,1 40,0" fill="#ff7777" stroke="#ff7777"></path><rect class="textbg" fill="#ffffff" width="144.11666870117188" height="19" x="-72.05833435058594" y="20"></rect><text class="nodelabel" y="35" text-anchor="middle">elevation from stand</text></g><g style="cursor: move; touch-action: none;" transform="translate(237.00683983388976,313.80308290515205)"><path fill-opacity="0.7" stroke-width="2" z-index="1" d="M 0 0 m 20, 0 a 20,15 0 1,1 -40,0 a 20,15 0 1,1 40,0" fill="#dddddd" stroke="#aaaaaa"></path><rect class="textbg" fill="#ffffff" width="169.88333129882812" height="19" x="-84.94166564941406" y="20"></rect><text class="nodelabel" y="35" text-anchor="middle">establishment likelihood</text></g><g style="cursor: move; touch-action: none;" transform="translate(509.12034850582205,47.627273989723655)"><path fill-opacity="0.7" stroke-width="2" z-index="1" d="M 0 0 m 20, 0 a 20,15 0 1,1 -40,0 a 20,15 0 1,1 40,0" fill="#00a2e0" stroke="#00a2e0"></path><rect class="textbg" fill="#ffffff" width="70.30000305175781" height="19" x="-35.150001525878906" y="20"></rect><text class="nodelabel" y="35" text-anchor="middle">stand age</text></g><g style="cursor: move; touch-action: none;" transform="translate(309.7733897891052,98.13803638383557)"><path fill-opacity="0.7" stroke-width="2" z-index="1" d="M 0 0 m 20, 0 a 20,15 0 1,1 -40,0 a 20,15 0 1,1 40,0" fill="#ff7777" stroke="#ff7777"></path><rect class="textbg" fill="#ffffff" width="135.21665954589844" height="19" x="-67.60832977294922" y="20"></rect><text class="nodelabel" y="35" text-anchor="middle">position from stand</text></g><g style="cursor: move; touch-action: none;" transform="translate(463.0152267730641,129.4089709762533)"><path fill-opacity="0.7" stroke-width="2" z-index="1" d="M 0 0 m 20, 0 a 20,15 0 1,1 -40,0 a 20,15 0 1,1 40,0" fill="#00a2e0" stroke="#00a2e0"></path><rect class="textbg" fill="#ffffff" width="225.0500030517578" height="19" x="-112.5250015258789" y="20"></rect><text class="nodelabel" y="35" text-anchor="middle">relative seed rain (in flat terrain)</text></g><g style="cursor: move; touch-action: none;" transform="translate(512.6064652715578,222.12803777253157)"><path fill-opacity="0.7" stroke-width="2" z-index="1" d="M 0 0 m 20, 0 a 20,15 0 1,1 -40,0 a 20,15 0 1,1 40,0" fill="#dddddd" stroke="#aaaaaa"></path><rect class="textbg" fill="#ffffff" width="100.53333282470703" height="19" x="-50.266666412353516" y="20"></rect><text class="nodelabel" y="35" text-anchor="middle">total seed rain</text></g><g style="cursor: move; touch-action: none;" transform="translate(514.8159758977282,313.80308290515205)"><path fill-opacity="0.7" stroke-width="2" z-index="1" d="M 0 0 m 20, 0 a 20,15 0 1,1 -40,0 a 20,15 0 1,1 40,0" fill="#00a2e0" stroke="#000000"></path><rect class="textbg" fill="#ffffff" width="136.10000610351562" height="19" x="-68.05000305175781" y="20"></rect><text class="nodelabel" y="35" text-anchor="middle">wildling abundance</text><path d="M-2,-6L2,-6L2,6L-2,6Z" fill="#000000"></path></g><g style="cursor: move; touch-action: none;" transform="translate(59.50948619819233,47.4284127204555)"><path fill-opacity="0.7" stroke-width="2" z-index="1" d="M 0 0 m 20, 0 a 20,15 0 1,1 -40,0 a 20,15 0 1,1 40,0" fill="#ff7777" stroke="#ff7777"></path><rect class="textbg" fill="#ffffff" width="50.68333435058594" height="19" x="-25.34166717529297" y="20"></rect><text class="nodelabel" y="35" text-anchor="middle">climate</text></g><g style="cursor: move; touch-action: none;" transform="translate(198.4140542301116,47.4284127204555)"><path fill-opacity="0.7" stroke-width="2" z-index="1" d="M 0 0 m 20, 0 a 20,15 0 1,1 -40,0 a 20,15 0 1,1 40,0" fill="#ff7777" stroke="#ff7777"></path><rect class="textbg" fill="#ffffff" width="24.899999618530273" height="19" x="-12.449999809265137" y="20"></rect><text class="nodelabel" y="35" text-anchor="middle">site</text></g></svg>