<?xml version="1.0" encoding="UTF-8" standalone="no"?>
<svg
   xmlns:dc="http://purl.org/dc/elements/1.1/"
   xmlns:cc="http://creativecommons.org/ns#"
   xmlns:rdf="http://www.w3.org/1999/02/22-rdf-syntax-ns#"
   xmlns:svg="http://www.w3.org/2000/svg"
   xmlns="http://www.w3.org/2000/svg"
   xmlns:sodipodi="http://sodipodi.sourceforge.net/DTD/sodipodi-0.dtd"
   xmlns:inkscape="http://www.inkscape.org/namespaces/inkscape"
   width="575.60931"
   height="321.37466"
   style="font-family:Arial, sans-serif"
   version="1.1"
   id="svg188"
   sodipodi:docname="dagitty-model.svg"
   inkscape:version="0.92.5 (2060ec1f9f, 2020-04-08)">
  <metadata
     id="metadata194">
    <rdf:RDF>
      <cc:Work
         rdf:about="">
        <dc:format>image/svg+xml</dc:format>
        <dc:type
           rdf:resource="http://purl.org/dc/dcmitype/StillImage" />
        <dc:title></dc:title>
      </cc:Work>
    </rdf:RDF>
  </metadata>
  <defs
     id="defs192" />
  <sodipodi:namedview
     pagecolor="#ffffff"
     bordercolor="#666666"
     borderopacity="1"
     objecttolerance="10"
     gridtolerance="10"
     guidetolerance="10"
     inkscape:pageopacity="0"
     inkscape:pageshadow="2"
     inkscape:window-width="640"
     inkscape:window-height="480"
     id="namedview190"
     showgrid="false"
     fit-margin-top="0"
     fit-margin-left="0"
     fit-margin-right="0"
     fit-margin-bottom="0"
     inkscape:zoom="0.39137645"
     inkscape:cx="249.52938"
     inkscape:cy="51.303083"
     inkscape:window-x="72"
     inkscape:window-y="27"
     inkscape:window-maximized="0"
     inkscape:current-layer="svg188" />
  <g
     class="path"
     id="g6"
     transform="translate(-7.2566351,-31.428419)">
    <path
       d="M 82.85,313.8 H 212.01"
       id="path2"
       inkscape:connector-curvature="0"
       style="fill:none;stroke:#4dac26;stroke-width:1.5" />
    <path
       class="arrowfront"
       d="M -1,0 15,5 V -5 Z"
       transform="rotate(179.99999,106.00341,156.90154)"
       id="path4"
       inkscape:connector-curvature="0"
       style="fill:#ffffff;stroke:#4dac26;stroke-width:1.5" />
  </g>
  <g
     class="path"
     id="g12"
     transform="translate(-7.2566351,-31.428419)">
    <path
       d="M 308.7,199.06 85.1,304.83"
       id="path8"
       inkscape:connector-curvature="0"
       style="fill:none;stroke:#000000;stroke-width:1.5" />
    <path
       class="arrowfront"
       d="M -1,0 15,5 V -5 Z"
       transform="rotate(-25.315148,721.203,-37.055508)"
       id="path10"
       inkscape:connector-curvature="0"
       style="fill:#ffffff;stroke:#000000;stroke-width:1.5" />
  </g>
  <g
     class="path"
     id="g18"
     transform="translate(-7.2566351,-31.428419)">
    <path
       d="M 345.97,194.75 488,218.63"
       id="path14"
       inkscape:connector-curvature="0"
       style="fill:none;stroke:#000000;stroke-width:1.5" />
    <path
       class="arrowfront"
       d="M -1,0 15,5 V -5 Z"
       transform="rotate(-170.45611,253.12712,88.944434)"
       id="path16"
       inkscape:connector-curvature="0"
       style="fill:#ffffff;stroke:#000000;stroke-width:1.5" />
  </g>
  <g
     class="path"
     id="g24"
     transform="translate(-7.2566351,-31.428419)">
    <path
       d="M 257.01,313.8 H 489.82"
       id="path20"
       inkscape:connector-curvature="0"
       style="fill:none;stroke:#4dac26;stroke-width:1.5" />
    <path
       class="arrowfront"
       d="M -1,0 15,5 V -5 Z"
       transform="rotate(180,244.90798,156.90154)"
       id="path22"
       inkscape:connector-curvature="0"
       style="fill:#ffffff;stroke:#4dac26;stroke-width:1.5" />
  </g>
  <g
     class="path"
     id="g30"
     transform="translate(-7.2566351,-31.428419)">
    <path
       d="m 509.47,62.62 2.67,139.51"
       id="path26"
       inkscape:connector-curvature="0"
       style="fill:none;stroke:#000000;stroke-width:1.5" />
    <path
       class="arrowfront"
       d="M -1,0 15,5 V -5 Z"
       transform="rotate(-91.094894,355.22177,-150.15591)"
       id="path28"
       inkscape:connector-curvature="0"
       style="fill:#ffffff;stroke:#000000;stroke-width:1.5" />
  </g>
  <g
     class="path"
     id="g36"
     transform="translate(-7.2566351,-31.428419)">
    <path
       d="M 295.68,108.78 80.93,300.15"
       id="path32"
       inkscape:connector-curvature="0"
       style="fill:none;stroke:#000000;stroke-width:1.5" />
    <path
       class="arrowfront"
       d="M -1,0 15,5 V -5 Z"
       transform="rotate(-41.705971,434.4433,43.840002)"
       id="path34"
       inkscape:connector-curvature="0"
       style="fill:#ffffff;stroke:#000000;stroke-width:1.5" />
  </g>
  <g
     class="path"
     id="g42"
     transform="translate(-7.2566351,-31.428419)">
    <path
       d="m 312.84,112.96 9.4,59.27"
       id="path38"
       inkscape:connector-curvature="0"
       style="fill:none;stroke:#000000;stroke-width:1.5" />
    <path
       class="arrowfront"
       d="M -1,0 15,5 V -5 Z"
       transform="rotate(-99.017446,234.64794,-51.453786)"
       id="path40"
       inkscape:connector-curvature="0"
       style="fill:#ffffff;stroke:#000000;stroke-width:1.5" />
  </g>
  <g
     class="path"
     id="g48"
     transform="translate(-7.2566351,-31.428419)">
    <path
       d="m 329.23,101.62 109.41,23.42"
       id="path44"
       inkscape:connector-curvature="0"
       style="fill:none;stroke:#000000;stroke-width:1.5" />
    <path
       class="arrowfront"
       d="M -1,0 15,5 V -5 Z"
       transform="rotate(-167.91785,225.93469,39.310837)"
       id="path46"
       inkscape:connector-curvature="0"
       style="fill:#ffffff;stroke:#000000;stroke-width:1.5" />
  </g>
  <g
     class="path"
     id="g54"
     transform="translate(-7.2566351,-31.428419)">
    <path
       d="m 471.5,143 29.98,61.3"
       id="path50"
       inkscape:connector-curvature="0"
       style="fill:none;stroke:#000000;stroke-width:1.5" />
    <path
       class="arrowfront"
       d="M -1,0 15,5 V -5 Z"
       transform="rotate(-116.06019,314.49356,-54.346163)"
       id="path52"
       inkscape:connector-curvature="0"
       style="fill:#ffffff;stroke:#000000;stroke-width:1.5" />
  </g>
  <g
     class="path"
     id="g60"
     transform="translate(-7.2566351,-31.428419)">
    <path
       d="m 513.03,237.12 1.22,56.69"
       id="path56"
       inkscape:connector-curvature="0"
       style="fill:none;stroke:#000000;stroke-width:1.5" />
    <path
       class="arrowfront"
       d="M -1,0 15,5 V -5 Z"
       transform="rotate(-91.233453,400.90066,-104.74458)"
       id="path58"
       inkscape:connector-curvature="0"
       style="fill:#ffffff;stroke:#000000;stroke-width:1.5" />
  </g>
  <g
     class="path"
     id="g66"
     transform="translate(-7.2566351,-31.428419)">
    <path
       d="M 59.73,62.43 62.55,293.8"
       id="path62"
       inkscape:connector-curvature="0"
       style="fill:none;stroke:#000000;stroke-width:1.5" />
    <path
       class="arrowfront"
       d="M -1,0 15,5 V -5 Z"
       transform="rotate(-90.699357,176.39722,116.00461)"
       id="path64"
       inkscape:connector-curvature="0"
       style="fill:#ffffff;stroke:#000000;stroke-width:1.5" />
  </g>
  <g
     class="path"
     id="g72"
     transform="translate(-7.2566351,-31.428419)">
    <path
       d="m 69.57,60.39 154.31,236.5"
       id="path68"
       inkscape:connector-curvature="0"
       style="fill:none;stroke:#000000;stroke-width:1.5" />
    <path
       class="arrowfront"
       d="M -1,0 15,5 V -5 Z"
       transform="rotate(-123.12293,192.33096,87.821754)"
       id="path70"
       inkscape:connector-curvature="0"
       style="fill:#ffffff;stroke:#000000;stroke-width:1.5" />
  </g>
  <g
     class="path"
     id="g78"
     transform="translate(-7.2566351,-31.428419)">
    <path
       d="M 190.27,61.13 73.55,295.8"
       id="path74"
       inkscape:connector-curvature="0"
       style="fill:none;stroke:#000000;stroke-width:1.5" />
    <path
       class="arrowfront"
       d="M -1,0 15,5 V -5 Z"
       transform="rotate(-63.554045,275.5253,88.538361)"
       id="path76"
       inkscape:connector-curvature="0"
       style="fill:#ffffff;stroke:#000000;stroke-width:1.5" />
  </g>
  <g
     class="path"
     id="g84"
     transform="translate(-7.2566351,-31.428419)">
    <path
       d="m 200.94,62.31 32.7,231.68"
       id="path80"
       inkscape:connector-curvature="0"
       style="fill:none;stroke:#000000;stroke-width:1.5" />
    <path
       class="arrowfront"
       d="M -1,0 15,5 V -5 Z"
       transform="rotate(-98.033927,244.52654,45.505821)"
       id="path82"
       inkscape:connector-curvature="0"
       style="fill:#ffffff;stroke:#000000;stroke-width:1.5" />
  </g>
  <g
     class="path"
     id="g90"
     transform="translate(-7.2566351,-31.428419)">
    <path
       d="m 218.41,47.44 265.71,0.17"
       id="path86"
       inkscape:connector-curvature="0"
       style="fill:none;stroke:#000000;stroke-width:1.5" />
    <path
       class="arrowfront"
       d="M -1,0 15,5 V -5 Z"
       transform="rotate(-179.96259,242.06797,23.727557)"
       id="path88"
       inkscape:connector-curvature="0"
       style="fill:#ffffff;stroke:#000000;stroke-width:1.5" />
  </g>
  <g
     class="path"
     id="g96"
     transform="translate(-7.2566351,-31.428419)">
    <path
       d="m 216.09,54.45 71.36,34.82"
       id="path92"
       inkscape:connector-curvature="0"
       style="fill:none;stroke:#000000;stroke-width:1.5" />
    <path
       class="arrowfront"
       d="M -1,0 15,5 V -5 Z"
       transform="rotate(-153.99071,154.0333,11.440876)"
       id="path94"
       inkscape:connector-curvature="0"
       style="fill:#ffffff;stroke:#000000;stroke-width:1.5" />
  </g>
  <g
     class="path"
     id="g102"
     transform="translate(-7.2566351,-31.428419)">
    <path
       d="M 178.41,47.43 H 84.51"
       id="path98"
       inkscape:connector-curvature="0"
       style="fill:none;stroke:#000000;stroke-width:1.5" />
    <path
       class="arrowfront"
       d="M -1,0 15,5 V -5 Z"
       transform="translate(84.509486,47.428413)"
       id="path100"
       inkscape:connector-curvature="0"
       style="fill:#ffffff;stroke:#000000;stroke-width:1.5" />
  </g>
  <g
     transform="translate(55.591667,282.37466)"
     id="g112">
    <path
       z-index="1"
       d="M 0,0 M 20,0 A 20,15 0 1 1 -20,0 20,15 0 1 1 20,0"
       id="path104"
       inkscape:connector-curvature="0"
       style="fill:#bed403;fill-opacity:0.7;stroke:#000000;stroke-width:2" />
    <rect
       class="textbg"
       width="111.18333"
       height="19"
       x="-55.591667"
       y="20"
       id="rect106"
       style="fill:#ffffff" />
    <text
       class="nodelabel"
       y="35"
       id="text108"
       style="text-anchor:middle">ecosystem type</text>
    <path
       d="M -4,-6 7,0 -4,6 Z"
       id="path110"
       inkscape:connector-curvature="0"
       style="fill:#000000" />
  </g>
  <g
     transform="translate(229.7502,282.37466)"
     id="g120">
    <path
       z-index="1"
       d="M 0,0 M 20,0 A 20,15 0 1 1 -20,0 20,15 0 1 1 20,0"
       id="path114"
       inkscape:connector-curvature="0"
       style="fill:#dddddd;fill-opacity:0.7;stroke:#aaaaaa;stroke-width:2" />
    <rect
       class="textbg"
       width="169.88333"
       height="19"
       x="-84.941666"
       y="20"
       id="rect116"
       style="fill:#ffffff" />
    <text
       class="nodelabel"
       y="35"
       id="text118"
       style="text-anchor:middle">establishment likelihood</text>
  </g>
  <g
     transform="translate(501.86371,16.198855)"
     id="g128">
    <path
       z-index="1"
       d="M 0,0 M 20,0 A 20,15 0 1 1 -20,0 20,15 0 1 1 20,0"
       id="path122"
       inkscape:connector-curvature="0"
       style="fill:#00a2e0;fill-opacity:0.7;stroke:#00a2e0;stroke-width:2" />
    <rect
       class="textbg"
       width="70.300003"
       height="19"
       x="-35.150002"
       y="20"
       id="rect124"
       style="fill:#ffffff" />
    <text
       class="nodelabel"
       y="35"
       id="text126"
       style="text-anchor:middle">stand age</text>
  </g>
  <g
     transform="translate(455.75859,97.980551)"
     id="g136">
    <path
       z-index="1"
       d="M 0,0 M 20,0 A 20,15 0 1 1 -20,0 20,15 0 1 1 20,0"
       id="path130"
       inkscape:connector-curvature="0"
       style="fill:#00a2e0;fill-opacity:0.7;stroke:#00a2e0;stroke-width:2" />
    <rect
       class="textbg"
       width="225.05"
       height="19"
       x="-112.525"
       y="20"
       id="rect132"
       style="fill:#ffffff" />
    <text
       class="nodelabel"
       y="35"
       id="text134"
       style="text-anchor:middle">relative seed rain (in flat terrain)</text>
  </g>
  <g
     transform="translate(505.34983,190.69962)"
     id="g144">
    <path
       z-index="1"
       d="M 0,0 M 20,0 A 20,15 0 1 1 -20,0 20,15 0 1 1 20,0"
       id="path138"
       inkscape:connector-curvature="0"
       style="fill:#dddddd;fill-opacity:0.7;stroke:#aaaaaa;stroke-width:2" />
    <rect
       class="textbg"
       width="100.53333"
       height="19"
       x="-50.266666"
       y="20"
       id="rect140"
       style="fill:#ffffff" />
    <text
       class="nodelabel"
       y="35"
       id="text142"
       style="text-anchor:middle">total seed rain</text>
  </g>
  <g
     transform="translate(507.55934,282.37466)"
     id="g154">
    <path
       z-index="1"
       d="M 0,0 M 20,0 A 20,15 0 1 1 -20,0 20,15 0 1 1 20,0"
       id="path146"
       inkscape:connector-curvature="0"
       style="fill:#00a2e0;fill-opacity:0.7;stroke:#000000;stroke-width:2" />
    <rect
       class="textbg"
       width="136.10001"
       height="19"
       x="-68.050003"
       y="20"
       id="rect148"
       style="fill:#ffffff" />
    <text
       class="nodelabel"
       y="35"
       id="text150"
       style="text-anchor:middle">wildling abundance</text>
    <path
       d="M -2,-6 H 2 V 6 h -4 z"
       id="path152"
       inkscape:connector-curvature="0"
       style="fill:#000000" />
  </g>
  <g
     transform="translate(52.252851,15.999994)"
     id="g162">
    <path
       z-index="1"
       d="M 0,0 M 20,0 A 20,15 0 1 1 -20,0 20,15 0 1 1 20,0"
       id="path156"
       inkscape:connector-curvature="0"
       style="fill:#ff7777;fill-opacity:0.7;stroke:#ff7777;stroke-width:2" />
    <rect
       class="textbg"
       width="50.683334"
       height="19"
       x="-25.341667"
       y="20"
       id="rect158"
       style="fill:#ffffff" />
    <text
       class="nodelabel"
       y="35"
       id="text160"
       style="text-anchor:middle">climate</text>
  </g>
  <g
     transform="translate(191.15741,15.999994)"
     id="g170">
    <path
       z-index="1"
       d="M 0,0 M 20,0 A 20,15 0 1 1 -20,0 20,15 0 1 1 20,0"
       id="path164"
       inkscape:connector-curvature="0"
       style="fill:#ff7777;fill-opacity:0.7;stroke:#ff7777;stroke-width:2" />
    <rect
       class="textbg"
       width="24.9"
       height="19"
       x="-12.45"
       y="20"
       id="rect166"
       style="fill:#ffffff" />
    <text
       class="nodelabel"
       y="35"
       id="text168"
       style="text-anchor:middle">site</text>
  </g>
  <g
     transform="translate(302.51675,66.709617)"
     id="g178">
    <path
       z-index="1"
       d="M 0,0 M 20,0 A 20,15 0 1 1 -20,0 20,15 0 1 1 20,0"
       id="path172"
       inkscape:connector-curvature="0"
       style="fill:#ff7777;fill-opacity:0.7;stroke:#ff7777;stroke-width:2" />
    <rect
       class="textbg"
       width="172.58333"
       height="19"
       x="-86.291664"
       y="20"
       id="rect174"
       style="fill:#ffffff" />
    <text
       class="nodelabel"
       y="35"
       id="text176"
       style="text-anchor:middle">position relative to stand</text>
  </g>
  <g
     transform="translate(319.06353,160.52242)"
     id="g186">
    <path
       z-index="1"
       d="M 0,0 M 20,0 A 20,15 0 1 1 -20,0 20,15 0 1 1 20,0"
       id="path180"
       inkscape:connector-curvature="0"
       style="fill:#ff7777;fill-opacity:0.7;stroke:#ff7777;stroke-width:2" />
    <rect
       class="textbg"
       width="181.48334"
       height="19"
       x="-90.741669"
       y="20"
       id="rect182"
       style="fill:#ffffff" />
    <text
       class="nodelabel"
       y="35"
       id="text184"
       style="text-anchor:middle">elevation relative to stand</text>
  </g>
</svg>
