<?xml version="1.0" encoding="UTF-8"?><svg xmlns="http://www.w3.org/2000/svg" width="1172" height="1172" style="font-family: Arial, sans-serif; width: 1172px; height: 832px;"><g class="path" style="cursor: move;"><path stroke="#4dac26" stroke-width="1.5" fill="none" d="M261.62,665.51L466.88,664.91"></path><path stroke="#4dac26" stroke-width="1.5" fill="white" class="arrowfront" d="M-1,0L15,5L15,-5Z" transform="translate(466.8822439625659,664.9071662255474) rotate(179.83202377481416)"></path></g><g class="path" style="cursor: move;"><path stroke="#4dac26" stroke-width="1.5" fill="none" d="M511.88,664.99L898.44,668.14"></path><path stroke="#4dac26" stroke-width="1.5" fill="white" class="arrowfront" d="M-1,0L15,5L15,-5Z" transform="translate(898.4371168984941,668.1392422919382) rotate(180.46738241353208)"></path></g><g class="path" style="cursor: move;"><path stroke="black" stroke-width="1.5" fill="none" d="M921.12,302.00L922.19,460.43"></path><path stroke="black" stroke-width="1.5" fill="white" class="arrowfront" d="M-1,0L15,5L15,-5Z" transform="translate(922.1915507878551,460.4325182446728) rotate(269.6136900153627)"></path></g><g class="path" style="cursor: move;"><path stroke="black" stroke-width="1.5" fill="none" d="M659.76,295.17L259.63,651.84"></path><path stroke="black" stroke-width="1.5" fill="white" class="arrowfront" d="M-1,0L15,5L15,-5Z" transform="translate(259.62635614197353,651.8376079532391) rotate(-41.71249131687534)"></path></g><g class="path" style="cursor: move;"><path stroke="black" stroke-width="1.5" fill="none" d="M673.71,299.48L672.98,455.94"></path><path stroke="black" stroke-width="1.5" fill="white" class="arrowfront" d="M-1,0L15,5L15,-5Z" transform="translate(672.9796724254625,455.93943736625147) rotate(-89.73367462285546)"></path></g><g class="path" style="cursor: move;"><path stroke="black" stroke-width="1.5" fill="none" d="M689.15,294.09L778.09,361.67"></path><path stroke="black" stroke-width="1.5" fill="white" class="arrowfront" d="M-1,0L15,5L15,-5Z" transform="translate(778.0935341349534,361.6671224165599) rotate(217.2254586077941)"></path></g><g class="path" style="cursor: move;"><path stroke="black" stroke-width="1.5" fill="none" d="M655.06,482.77L264.10,656.93"></path><path stroke="black" stroke-width="1.5" fill="white" class="arrowfront" d="M-1,0L15,5L15,-5Z" transform="translate(264.0971571385241,656.9335737549653) rotate(-24.011403783991405)"></path></g><g class="path" style="cursor: move;"><path stroke="black" stroke-width="1.5" fill="none" d="M692.86,476.26L897.36,480.04"></path><path stroke="black" stroke-width="1.5" fill="white" class="arrowfront" d="M-1,0L15,5L15,-5Z" transform="translate(897.3610595497474,480.0360860147971) rotate(181.05901084201255)"></path></g><g class="path" style="cursor: move;"><path stroke="black" stroke-width="1.5" fill="none" d="M811.94,384.46L904.08,466.94"></path><path stroke="black" stroke-width="1.5" fill="white" class="arrowfront" d="M-1,0L15,5L15,-5Z" transform="translate(904.0848339600801,466.93570767638204) rotate(221.8313429631694)"></path></g><g class="path" style="cursor: move;"><path stroke="black" stroke-width="1.5" fill="none" d="M922.46,495.43L923.30,648.32"></path><path stroke="black" stroke-width="1.5" fill="white" class="arrowfront" d="M-1,0L15,5L15,-5Z" transform="translate(923.3011869019723,648.3165442529365) rotate(269.6836706102365)"></path></g><g class="path" style="cursor: move;"><path stroke="black" stroke-width="1.5" fill="none" d="M240.59,302.14L241.55,645.56"></path><path stroke="black" stroke-width="1.5" fill="white" class="arrowfront" d="M-1,0L15,5L15,-5Z" transform="translate(241.5539221728551,645.5593190414017) rotate(269.8393526938152)"></path></g><g class="path" style="cursor: move;"><path stroke="black" stroke-width="1.5" fill="none" d="M250.59,300.11L478.76,647.92"></path><path stroke="black" stroke-width="1.5" fill="white" class="arrowfront" d="M-1,0L15,5L15,-5Z" transform="translate(478.76493468344495,647.9228683644054) rotate(236.73486193758802)"></path></g><g class="path" style="cursor: move;"><path stroke="black" stroke-width="1.5" fill="none" d="M559.70,135.80L253.83,648.20"></path><path stroke="black" stroke-width="1.5" fill="white" class="arrowfront" d="M-1,0L15,5L15,-5Z" transform="translate(253.82633334022336,648.1975402535224) rotate(-59.16502645023291)"></path></g><g class="path" style="cursor: move;"><path stroke="black" stroke-width="1.5" fill="none" d="M566.55,137.42L495.19,645.03"></path><path stroke="black" stroke-width="1.5" fill="white" class="arrowfront" d="M-1,0L15,5L15,-5Z" transform="translate(495.18682993718596,645.0269049728759) rotate(-81.99788635192208)"></path></g><g class="path" style="cursor: move;"><path stroke="black" stroke-width="1.5" fill="none" d="M586.60,129.70L898.79,277.95"></path><path stroke="black" stroke-width="1.5" fill="white" class="arrowfront" d="M-1,0L15,5L15,-5Z" transform="translate(898.7932695090585,277.9500063194189) rotate(205.40234876305124)"></path></g><g class="path" style="cursor: move;"><path stroke="black" stroke-width="1.5" fill="none" d="M578.87,135.59L660.94,267.43"></path><path stroke="black" stroke-width="1.5" fill="white" class="arrowfront" d="M-1,0L15,5L15,-5Z" transform="translate(660.9378711451974,267.4284278942812) rotate(238.09835749415817)"></path></g><g class="path" style="cursor: move;"><path stroke="black" stroke-width="1.5" fill="none" d="M551.74,130.08L262.41,277.59"></path><path stroke="black" stroke-width="1.5" fill="white" class="arrowfront" d="M-1,0L15,5L15,-5Z" transform="translate(262.40995467083115,277.5870184101251) rotate(-27.013222312383697)"></path></g><g style="cursor: move; touch-action: none;" transform="translate(241.62085308056876,665.5591556210114)"><path fill-opacity="0.7" stroke-width="2" z-index="1" d="M 0 0 m 20, 0 a 20,15 0 1,1 -40,0 a 20,15 0 1,1 40,0" fill="#bed403" stroke="#000000"></path><rect class="textbg" fill="#ffffff" width="111.18333435058594" height="17" x="-55.59166717529297" y="21"></rect><text class="nodelabel" y="35" text-anchor="middle">ecosystem type</text><path d="M-4,-6L7,0L-4,6Z" fill="#000000"></path></g><g style="cursor: move; touch-action: none;" transform="translate(921,287)"><path fill-opacity="0.7" stroke-width="2" z-index="1" d="M 0 0 m 20, 0 a 20,15 0 1,1 -40,0 a 20,15 0 1,1 40,0" fill="#00a2e0" stroke="#00a2e0"></path><rect class="textbg" fill="#ffffff" width="100.55000305175781" height="17" x="-50.275001525878906" y="21"></rect><text class="nodelabel" y="35" text-anchor="middle">plantation age</text></g><g style="cursor: move; touch-action: none;" transform="translate(673.7919957872565,284.4810996563574)"><path fill-opacity="0.7" stroke-width="2" z-index="1" d="M 0 0 m 20, 0 a 20,15 0 1,1 -40,0 a 20,15 0 1,1 40,0" fill="#ff7777" stroke="#ff7777"></path><rect class="textbg" fill="#ffffff" width="155.6666717529297" height="17" x="-77.83333587646484" y="21"></rect><text class="nodelabel" y="35" text-anchor="middle">proximity to plantation</text></g><g style="cursor: move; touch-action: none;" transform="translate(672.8662453923118,475.93912616593025)"><path fill-opacity="0.7" stroke-width="2" z-index="1" d="M 0 0 m 20, 0 a 20,15 0 1,1 -40,0 a 20,15 0 1,1 40,0" fill="#ff7777" stroke="#ff7777"></path><rect class="textbg" fill="#ffffff" width="211.73333740234375" height="17" x="-105.86666870117188" y="21"></rect><text class="nodelabel" y="35" text-anchor="middle">relative elevation to plantation</text></g><g style="cursor: move; touch-action: none;" transform="translate(797.6882569773564,373.9302896416299)"><path fill-opacity="0.7" stroke-width="2" z-index="1" d="M 0 0 m 20, 0 a 20,15 0 1,1 -40,0 a 20,15 0 1,1 40,0" fill="#00a2e0" stroke="#00a2e0"></path><rect class="textbg" fill="#ffffff" width="214.38333129882812" height="17" x="-107.19166564941406" y="21"></rect><text class="nodelabel" y="35" text-anchor="middle">relative seed rain in flat terrain</text></g><g style="cursor: move; touch-action: none;" transform="translate(922.3559768299104,480.4320078546883)"><path fill-opacity="0.7" stroke-width="2" z-index="1" d="M 0 0 m 20, 0 a 20,15 0 1,1 -40,0 a 20,15 0 1,1 40,0" fill="#dddddd" stroke="#aaaaaa"></path><rect class="textbg" fill="#ffffff" width="65.83333587646484" height="17" x="-32.91666793823242" y="21"></rect><text class="nodelabel" y="35" text-anchor="middle">seed rain</text></g><g style="cursor: move; touch-action: none;" transform="translate(240.54081095313325,287.1359842906235)"><path fill-opacity="0.7" stroke-width="2" z-index="1" d="M 0 0 m 20, 0 a 20,15 0 1,1 -40,0 a 20,15 0 1,1 40,0" fill="#ff7777" stroke="#ff7777"></path><rect class="textbg" fill="#ffffff" width="50.68333435058594" height="17" x="-25.34166717529297" y="21"></rect><text class="nodelabel" y="35" text-anchor="middle">climate</text></g><g style="cursor: move; touch-action: none;" transform="translate(569.0279094260137,122.53313696612668)"><path fill-opacity="0.7" stroke-width="2" z-index="1" d="M 0 0 m 20, 0 a 20,15 0 1,1 -40,0 a 20,15 0 1,1 40,0" fill="#ff7777" stroke="#ff7777"></path><rect class="textbg" fill="#ffffff" width="24.899999618530273" height="17" x="-12.449999809265137" y="21"></rect><text class="nodelabel" y="35" text-anchor="middle">site</text></g><g style="cursor: move; touch-action: none;" transform="translate(923.436018957346,668.3161512027492)"><path fill-opacity="0.7" stroke-width="2" z-index="1" d="M 0 0 m 20, 0 a 20,15 0 1,1 -40,0 a 20,15 0 1,1 40,0" fill="#00a2e0" stroke="#000000"></path><rect class="textbg" fill="#ffffff" width="60.45000076293945" height="17" x="-30.225000381469727" y="21"></rect><text class="nodelabel" y="35" text-anchor="middle">wildlings</text><path d="M-2,-6L2,-6L2,6L-2,6Z" fill="#000000"></path></g><g style="cursor: move; touch-action: none;" transform="translate(491.8820431806214,664.844378988709)"><path fill-opacity="0.7" stroke-width="2" z-index="1" d="M 0 0 m 20, 0 a 20,15 0 1,1 -40,0 a 20,15 0 1,1 40,0" fill="#dddddd" stroke="#aaaaaa"></path><rect class="textbg" fill="#ffffff" width="169.88333129882812" height="17" x="-84.94166564941406" y="21"></rect><text class="nodelabel" y="35" text-anchor="middle">establishment likelihood</text></g></svg>