<?xml version="1.0" encoding="UTF-8" standalone="no"?>
<svg
   xmlns:dc="http://purl.org/dc/elements/1.1/"
   xmlns:cc="http://creativecommons.org/ns#"
   xmlns:rdf="http://www.w3.org/1999/02/22-rdf-syntax-ns#"
   xmlns:svg="http://www.w3.org/2000/svg"
   xmlns="http://www.w3.org/2000/svg"
   xmlns:sodipodi="http://sodipodi.sourceforge.net/DTD/sodipodi-0.dtd"
   xmlns:inkscape="http://www.inkscape.org/namespaces/inkscape"
   width="533.63556"
   height="302.02902"
   style="font-family:Arial, sans-serif"
   version="1.1"
   id="svg188"
   sodipodi:docname="dagitty-model.svg"
   inkscape:version="0.92.5 (2060ec1f9f, 2020-04-08)">
  <metadata
     id="metadata194">
    <rdf:RDF>
      <cc:Work
         rdf:about="">
        <dc:format>image/svg+xml</dc:format>
        <dc:type
           rdf:resource="http://purl.org/dc/dcmitype/StillImage" />
        <dc:title />
      </cc:Work>
    </rdf:RDF>
  </metadata>
  <defs
     id="defs192" />
  <sodipodi:namedview
     pagecolor="#ffffff"
     bordercolor="#666666"
     borderopacity="1"
     objecttolerance="10"
     gridtolerance="10"
     guidetolerance="10"
     inkscape:pageopacity="0"
     inkscape:pageshadow="2"
     inkscape:window-width="1848"
     inkscape:window-height="1016"
     id="namedview190"
     showgrid="false"
     fit-margin-top="0"
     fit-margin-left="0"
     fit-margin-right="0"
     fit-margin-bottom="0"
     inkscape:zoom="1.725777"
     inkscape:cx="161.02669"
     inkscape:cy="-72.037407"
     inkscape:window-x="72"
     inkscape:window-y="27"
     inkscape:window-maximized="1"
     inkscape:current-layer="svg188" />
  <g
     class="path"
     id="g6"
     transform="translate(-1.4199768,-27.983898)">
    <path
       d="M 77.01,291.01 H 190"
       id="path2"
       inkscape:connector-curvature="0"
       style="fill:none;stroke:#4dac26;stroke-width:1.5" />
    <path
       class="arrowfront"
       d="M -1,0 15,5 V -5 Z"
       transform="rotate(179.99999,94.998117,145.50646)"
       id="path4"
       inkscape:connector-curvature="0"
       style="fill:#ffffff;stroke:#4dac26;stroke-width:1.5" />
  </g>
  <g
     class="path"
     id="g12"
     transform="translate(-1.4199768,-27.983898)">
    <path
       d="M 278.49,185.24 79.16,281.88"
       id="path8"
       inkscape:connector-curvature="0"
       style="fill:none;stroke:#000000;stroke-width:1.5" />
    <path
       class="arrowfront"
       d="M -1,0 15,5 V -5 Z"
       transform="rotate(-25.866597,653.31824,-31.423129)"
       id="path10"
       inkscape:connector-curvature="0"
       style="fill:#ffffff;stroke:#000000;stroke-width:1.5" />
  </g>
  <g
     class="path"
     id="g18"
     transform="translate(-1.4199768,-27.983898)">
    <path
       d="m 315.65,180.87 124.77,21.55"
       id="path14"
       inkscape:connector-curvature="0"
       style="fill:none;stroke:#000000;stroke-width:1.5" />
    <path
       class="arrowfront"
       d="M -1,0 15,5 V -5 Z"
       transform="rotate(-170.199,228.88542,82.329307)"
       id="path16"
       inkscape:connector-curvature="0"
       style="fill:#ffffff;stroke:#000000;stroke-width:1.5" />
  </g>
  <g
     class="path"
     id="g24"
     transform="translate(-1.4199768,-27.983898)">
    <path
       d="M 235,291.01 H 442.01"
       id="path20"
       inkscape:connector-curvature="0"
       style="fill:none;stroke:#4dac26;stroke-width:1.5" />
    <path
       class="arrowfront"
       d="M -1,0 15,5 V -5 Z"
       transform="rotate(180,221.00276,145.50646)"
       id="path22"
       inkscape:connector-curvature="0"
       style="fill:#ffffff;stroke:#4dac26;stroke-width:1.5" />
  </g>
  <g
     class="path"
     id="g30"
     transform="translate(-1.4199768,-27.983898)">
    <path
       d="M 462.18,59.17 464.54,186"
       id="path26"
       inkscape:connector-curvature="0"
       style="fill:none;stroke:#000000;stroke-width:1.5" />
    <path
       class="arrowfront"
       d="M -1,0 15,5 V -5 Z"
       transform="rotate(-91.066151,323.55655,-134.98942)"
       id="path28"
       inkscape:connector-curvature="0"
       style="fill:#ffffff;stroke:#000000;stroke-width:1.5" />
  </g>
  <g
     class="path"
     id="g36"
     transform="translate(-1.4199768,-27.983898)">
    <path
       d="M 267.06,101.77 74.91,277.2"
       id="path32"
       inkscape:connector-curvature="0"
       style="fill:none;stroke:#000000;stroke-width:1.5" />
    <path
       class="arrowfront"
       d="M -1,0 15,5 V -5 Z"
       transform="rotate(-42.396108,394.82738,42.025993)"
       id="path34"
       inkscape:connector-curvature="0"
       style="fill:#ffffff;stroke:#000000;stroke-width:1.5" />
  </g>
  <g
     class="path"
     id="g42"
     transform="translate(-1.4199768,-27.983898)">
    <path
       d="m 284,105.84 8.02,52.44"
       id="path38"
       inkscape:connector-curvature="0"
       style="fill:none;stroke:#000000;stroke-width:1.5" />
    <path
       class="arrowfront"
       d="M -1,0 15,5 V -5 Z"
       transform="rotate(-98.696778,213.96612,-46.237562)"
       id="path40"
       inkscape:connector-curvature="0"
       style="fill:#ffffff;stroke:#000000;stroke-width:1.5" />
  </g>
  <g
     class="path"
     id="g48"
     transform="translate(-1.4199768,-27.983898)">
    <path
       d="m 300.44,94.57 95.22,20.98"
       id="path44"
       inkscape:connector-curvature="0"
       style="fill:none;stroke:#000000;stroke-width:1.5" />
    <path
       class="arrowfront"
       d="M -1,0 15,5 V -5 Z"
       transform="rotate(-167.57358,204.12168,36.23825)"
       id="path46"
       inkscape:connector-curvature="0"
       style="fill:#ffffff;stroke:#000000;stroke-width:1.5" />
  </g>
  <g
     class="path"
     id="g54"
     transform="translate(-1.4199768,-27.983898)">
    <path
       d="m 428.35,133.65 25.71,54.44"
       id="path50"
       inkscape:connector-curvature="0"
       style="fill:none;stroke:#000000;stroke-width:1.5" />
    <path
       class="arrowfront"
       d="M -1,0 15,5 V -5 Z"
       transform="rotate(-115.28775,286.61333,-49.791195)"
       id="path52"
       inkscape:connector-curvature="0"
       style="fill:#ffffff;stroke:#000000;stroke-width:1.5" />
  </g>
  <g
     class="path"
     id="g60"
     transform="translate(-1.4199768,-27.983898)">
    <path
       d="m 465.42,220.99 1.03,50.03"
       id="path56"
       inkscape:connector-curvature="0"
       style="fill:none;stroke:#000000;stroke-width:1.5" />
    <path
       class="arrowfront"
       d="M -1,0 15,5 V -5 Z"
       transform="rotate(-91.187374,365.95586,-92.933444)"
       id="path58"
       inkscape:connector-curvature="0"
       style="fill:#ffffff;stroke:#000000;stroke-width:1.5" />
  </g>
  <g
     class="path"
     id="g66"
     transform="translate(-1.4199768,-27.983898)">
    <path
       d="m 54.2,58.98 2.52,212.03"
       id="path62"
       inkscape:connector-curvature="0"
       style="fill:none;stroke:#000000;stroke-width:1.5" />
    <path
       class="arrowfront"
       d="M -1,0 15,5 V -5 Z"
       transform="rotate(-90.682415,162.26482,107.48096)"
       id="path64"
       inkscape:connector-curvature="0"
       style="fill:#ffffff;stroke:#000000;stroke-width:1.5" />
  </g>
  <g
     class="path"
     id="g72"
     transform="translate(-1.4199768,-27.983898)">
    <path
       d="M 63.88,57.02 202.07,273.99"
       id="path68"
       inkscape:connector-curvature="0"
       style="fill:none;stroke:#000000;stroke-width:1.5" />
    <path
       class="arrowfront"
       d="M -1,0 15,5 V -5 Z"
       transform="rotate(-122.49262,176.20682,81.558694)"
       id="path70"
       inkscape:connector-curvature="0"
       style="fill:#ffffff;stroke:#000000;stroke-width:1.5" />
  </g>
  <g
     class="path"
     id="g78"
     transform="translate(-1.4199768,-27.983898)">
    <path
       d="M 171.99,57.74 67.52,272.94"
       id="path74"
       inkscape:connector-curvature="0"
       style="fill:none;stroke:#000000;stroke-width:1.5" />
    <path
       class="arrowfront"
       d="M -1,0 15,5 V -5 Z"
       transform="rotate(-64.105,251.71059,82.551235)"
       id="path76"
       inkscape:connector-curvature="0"
       style="fill:#ffffff;stroke:#000000;stroke-width:1.5" />
  </g>
  <g
     class="path"
     id="g84"
     transform="translate(-1.4199768,-27.983898)">
    <path
       d="M 182.46,58.87 211.7,271.19"
       id="path80"
       inkscape:connector-curvature="0"
       style="fill:none;stroke:#000000;stroke-width:1.5" />
    <path
       class="arrowfront"
       d="M -1,0 15,5 V -5 Z"
       transform="rotate(-97.84192,224.0534,43.324793)"
       id="path82"
       inkscape:connector-curvature="0"
       style="fill:#ffffff;stroke:#000000;stroke-width:1.5" />
  </g>
  <g
     class="path"
     id="g90"
     transform="translate(-1.4199768,-27.983898)">
    <path
       d="m 199.99,44 236.85,0.15"
       id="path86"
       inkscape:connector-curvature="0"
       style="fill:none;stroke:#000000;stroke-width:1.5" />
    <path
       class="arrowfront"
       d="M -1,0 15,5 V -5 Z"
       transform="rotate(-179.96166,218.42684,22.003868)"
       id="path88"
       inkscape:connector-curvature="0"
       style="fill:#ffffff;stroke:#000000;stroke-width:1.5" />
  </g>
  <g
     class="path"
     id="g96"
     transform="translate(-1.4199768,-27.983898)">
    <path
       d="m 197.58,51.13 61.2,30.86"
       id="path92"
       inkscape:connector-curvature="0"
       style="fill:none;stroke:#000000;stroke-width:1.5" />
    <path
       class="arrowfront"
       d="M -1,0 15,5 V -5 Z"
       transform="rotate(-153.24106,139.14107,10.21732)"
       id="path94"
       inkscape:connector-curvature="0"
       style="fill:#ffffff;stroke:#000000;stroke-width:1.5" />
  </g>
  <g
     class="path"
     id="g102"
     transform="translate(-1.4199768,-27.983898)">
    <path
       d="M 159.99,43.98 H 78.98"
       id="path98"
       inkscape:connector-curvature="0"
       style="fill:none;stroke:#000000;stroke-width:1.5" />
    <path
       class="arrowfront"
       d="M -1,0 15,5 V -5 Z"
       transform="translate(78.9829,43.983891)"
       id="path100"
       inkscape:connector-curvature="0"
       style="fill:#ffffff;stroke:#000000;stroke-width:1.5" />
  </g>
  <g
     transform="translate(55.591667,263.02901)"
     id="g112">
    <path
       z-index="1"
       d="M 0,0 M 20,0 A 20,15 0 1 1 -20,0 20,15 0 1 1 20,0"
       id="path104"
       inkscape:connector-curvature="0"
       style="fill:#bed403;fill-opacity:0.7;stroke:#000000;stroke-width:2" />
    <rect
       class="textbg"
       width="111.18333"
       height="19"
       x="-55.591667"
       y="20"
       id="rect106"
       style="fill:#ffffff" />
    <text
       class="nodelabel"
       y="35"
       id="text108"
       style="text-anchor:middle">ecosystem type</text>
    <path
       d="M -4,-6 7,0 -4,6 Z"
       id="path110"
       inkscape:connector-curvature="0"
       style="fill:#000000" />
  </g>
  <g
     transform="translate(294.59517,150.02638)"
     id="g120">
    <path
       z-index="1"
       d="M 0,0 M 20,0 A 20,15 0 1 1 -20,0 20,15 0 1 1 20,0"
       id="path114"
       inkscape:connector-curvature="0"
       style="fill:#ff7777;fill-opacity:0.7;stroke:#ff7777;stroke-width:2" />
    <rect
       class="textbg"
       width="174.36667"
       height="19"
       x="-87.183334"
       y="20"
       id="rect116"
       style="fill:#ffffff" />
    <text
       class="nodelabel"
       y="35"
       id="text118"
       style="text-anchor:middle">elevation from plantation</text>
  </g>
  <g
     transform="translate(213.57627,263.02901)"
     id="g128">
    <path
       z-index="1"
       d="M 0,0 M 20,0 A 20,15 0 1 1 -20,0 20,15 0 1 1 20,0"
       id="path122"
       inkscape:connector-curvature="0"
       style="fill:#dddddd;fill-opacity:0.7;stroke:#aaaaaa;stroke-width:2" />
    <rect
       class="textbg"
       width="169.88333"
       height="19"
       x="-84.941666"
       y="20"
       id="rect124"
       style="fill:#ffffff" />
    <text
       class="nodelabel"
       y="35"
       id="text126"
       style="text-anchor:middle">establishment likelihood</text>
  </g>
  <g
     transform="translate(460.41888,16.184412)"
     id="g136">
    <path
       z-index="1"
       d="M 0,0 M 20,0 A 20,15 0 1 1 -20,0 20,15 0 1 1 20,0"
       id="path130"
       inkscape:connector-curvature="0"
       style="fill:#00a2e0;fill-opacity:0.7;stroke:#00a2e0;stroke-width:2" />
    <rect
       class="textbg"
       width="100.55"
       height="19"
       x="-50.275002"
       y="20"
       id="rect132"
       style="fill:#ffffff" />
    <text
       class="nodelabel"
       y="35"
       id="text134"
       style="text-anchor:middle">plantation age</text>
  </g>
  <g
     transform="translate(279.58507,63.026795)"
     id="g144">
    <path
       z-index="1"
       d="M 0,0 M 20,0 A 20,15 0 1 1 -20,0 20,15 0 1 1 20,0"
       id="path138"
       inkscape:connector-curvature="0"
       style="fill:#ff7777;fill-opacity:0.7;stroke:#ff7777;stroke-width:2" />
    <rect
       class="textbg"
       width="165.46666"
       height="19"
       x="-82.73333"
       y="20"
       id="rect140"
       style="fill:#ffffff" />
    <text
       class="nodelabel"
       y="35"
       id="text142"
       style="text-anchor:middle">position from plantation</text>
  </g>
  <g
     transform="translate(418.59549,92.026652)"
     id="g152">
    <path
       z-index="1"
       d="M 0,0 M 20,0 A 20,15 0 1 1 -20,0 20,15 0 1 1 20,0"
       id="path146"
       inkscape:connector-curvature="0"
       style="fill:#00a2e0;fill-opacity:0.7;stroke:#00a2e0;stroke-width:2" />
    <rect
       class="textbg"
       width="225.05"
       height="19"
       x="-112.525"
       y="20"
       id="rect148"
       style="fill:#ffffff" />
    <text
       class="nodelabel"
       y="35"
       id="text150"
       style="text-anchor:middle">relative seed rain (in flat terrain)</text>
  </g>
  <g
     transform="translate(463.58124,178.01193)"
     id="g160">
    <path
       z-index="1"
       d="M 0,0 M 20,0 A 20,15 0 1 1 -20,0 20,15 0 1 1 20,0"
       id="path154"
       inkscape:connector-curvature="0"
       style="fill:#dddddd;fill-opacity:0.7;stroke:#aaaaaa;stroke-width:2" />
    <rect
       class="textbg"
       width="65.833336"
       height="19"
       x="-32.916668"
       y="20"
       id="rect156"
       style="fill:#ffffff" />
    <text
       class="nodelabel"
       y="35"
       id="text158"
       style="text-anchor:middle">total seed rain</text>
  </g>
  <g
     transform="translate(465.58556,263.02901)"
     id="g170">
    <path
       z-index="1"
       d="M 0,0 M 20,0 A 20,15 0 1 1 -20,0 20,15 0 1 1 20,0"
       id="path162"
       inkscape:connector-curvature="0"
       style="fill:#00a2e0;fill-opacity:0.7;stroke:#000000;stroke-width:2" />
    <rect
       class="textbg"
       width="136.10001"
       height="19"
       x="-68.050003"
       y="20"
       id="rect164"
       style="fill:#ffffff" />
    <text
       class="nodelabel"
       y="35"
       id="text166"
       style="text-anchor:middle">wildling abundance</text>
    <path
       d="M -2,-6 H 2 V 6 h -4 z"
       id="path168"
       inkscape:connector-curvature="0"
       style="fill:#000000" />
  </g>
  <g
     transform="translate(52.562923,15.999993)"
     id="g178">
    <path
       z-index="1"
       d="M 0,0 M 20,0 A 20,15 0 1 1 -20,0 20,15 0 1 1 20,0"
       id="path172"
       inkscape:connector-curvature="0"
       style="fill:#ff7777;fill-opacity:0.7;stroke:#ff7777;stroke-width:2" />
    <rect
       class="textbg"
       width="50.683334"
       height="19"
       x="-25.341667"
       y="20"
       id="rect174"
       style="fill:#ffffff" />
    <text
       class="nodelabel"
       y="35"
       id="text176"
       style="text-anchor:middle">climate</text>
  </g>
  <g
     transform="translate(178.56756,15.999993)"
     id="g186">
    <path
       z-index="1"
       d="M 0,0 M 20,0 A 20,15 0 1 1 -20,0 20,15 0 1 1 20,0"
       id="path180"
       inkscape:connector-curvature="0"
       style="fill:#ff7777;fill-opacity:0.7;stroke:#ff7777;stroke-width:2" />
    <rect
       class="textbg"
       width="24.9"
       height="19"
       x="-12.45"
       y="20"
       id="rect182"
       style="fill:#ffffff" />
    <text
       class="nodelabel"
       y="35"
       id="text184"
       style="text-anchor:middle">site</text>
  </g>
</svg>
